<svg width="1920" height="1080" viewBox="0 0 1920 1080" fill="none" xmlns="http://www.w3.org/2000/svg">
<g opacity="0.04">
<path d="M32.5 1046H-14L-38 1086L-14 1127H32.5L56 1086L32.5 1046Z" stroke="#3D16FB" stroke-width="3"/>
<path d="M173.5 1046H127L103 1086L127 1127H173.5L197 1086L173.5 1046Z" stroke="#3D16FB" stroke-width="3"/>
<path d="M314.5 1046H268L244 1086L268 1127H314.5L338 1086L314.5 1046Z" stroke="#3D16FB" stroke-width="3"/>
<path d="M455.5 1046H409L385 1086L409 1127H455.5L479 1086L455.5 1046Z" stroke="#3D16FB" stroke-width="3"/>
<path d="M596.5 1046H550L526 1086L550 1127H596.5L620 1086L596.5 1046Z" stroke="#3D16FB" stroke-width="3"/>
<path d="M737.5 1046H691L667 1086L691 1127H737.5L761 1086L737.5 1046Z" stroke="#3D16FB" stroke-width="3"/>
<path d="M878.5 1046H832L808 1086L832 1127H878.5L902 1086L878.5 1046Z" stroke="#3D16FB" stroke-width="3"/>
<path d="M1019.5 1046H973L949 1086L973 1127H1019.5L1043 1086L1019.5 1046Z" stroke="#3D16FB" stroke-width="3"/>
<path d="M1160.5 1046H1114L1090 1086L1114 1127H1160.5L1184 1086L1160.5 1046Z" stroke="#3D16FB" stroke-width="3"/>
<path d="M1301.5 1046H1255L1231 1086L1255 1127H1301.5L1325 1086L1301.5 1046Z" stroke="#3D16FB" stroke-width="3"/>
<path d="M1442.5 1046H1396L1372 1086L1396 1127H1442.5L1466 1086L1442.5 1046Z" stroke="#3D16FB" stroke-width="3"/>
<path d="M1583.5 1046H1537L1513 1086L1537 1127H1583.5L1607 1086L1583.5 1046Z" stroke="#3D16FB" stroke-width="3"/>
<path d="M1724.5 1046H1678L1654 1086L1678 1127H1724.5L1748 1086L1724.5 1046Z" stroke="#3D16FB" stroke-width="3"/>
<path d="M1865.5 1046H1819L1795 1086L1819 1127H1865.5L1889 1086L1865.5 1046Z" stroke="#3D16FB" stroke-width="3"/>
<path d="M102.5 1006H56L32 1046L56 1087H102.5L126 1046L102.5 1006Z" stroke="#3D16FB" stroke-width="3"/>
<path d="M243.5 1006H197L173 1046L197 1087H243.5L267 1046L243.5 1006Z" stroke="#3D16FB" stroke-width="3"/>
<path d="M384.5 1006H338L314 1046L338 1087H384.5L408 1046L384.5 1006Z" stroke="#3D16FB" stroke-width="3"/>
<path d="M525.5 1006H479L455 1046L479 1087H525.5L549 1046L525.5 1006Z" stroke="#3D16FB" stroke-width="3"/>
<path d="M666.5 1006H620L596 1046L620 1087H666.5L690 1046L666.5 1006Z" stroke="#3D16FB" stroke-width="3"/>
<path d="M807.5 1006H761L737 1046L761 1087H807.5L831 1046L807.5 1006Z" stroke="#3D16FB" stroke-width="3"/>
<path d="M948.5 1006H902L878 1046L902 1087H948.5L972 1046L948.5 1006Z" stroke="#3D16FB" stroke-width="3"/>
<path d="M1089.5 1006H1043L1019 1046L1043 1087H1089.5L1113 1046L1089.5 1006Z" stroke="#3D16FB" stroke-width="3"/>
<path d="M1230.5 1006H1184L1160 1046L1184 1087H1230.5L1254 1046L1230.5 1006Z" stroke="#3D16FB" stroke-width="3"/>
<path d="M1371.5 1006H1325L1301 1046L1325 1087H1371.5L1395 1046L1371.5 1006Z" stroke="#3D16FB" stroke-width="3"/>
<path d="M1512.5 1006H1466L1442 1046L1466 1087H1512.5L1536 1046L1512.5 1006Z" stroke="#3D16FB" stroke-width="3"/>
<path d="M1653.5 1006H1607L1583 1046L1607 1087H1653.5L1677 1046L1653.5 1006Z" stroke="#3D16FB" stroke-width="3"/>
<path d="M1794.5 1006H1748L1724 1046L1748 1087H1794.5L1818 1046L1794.5 1006Z" stroke="#3D16FB" stroke-width="3"/>
<path d="M1935.5 1006H1889L1865 1046L1889 1087H1935.5L1959 1046L1935.5 1006Z" stroke="#3D16FB" stroke-width="3"/>
<path d="M32.5 965H-14L-38 1005L-14 1046H32.5L56 1005L32.5 965Z" stroke="#3D16FB" stroke-width="3"/>
<path d="M173.5 965H127L103 1005L127 1046H173.5L197 1005L173.5 965Z" stroke="#3D16FB" stroke-width="3"/>
<path d="M314.5 965H268L244 1005L268 1046H314.5L338 1005L314.5 965Z" stroke="#3D16FB" stroke-width="3"/>
<path d="M455.5 965H409L385 1005L409 1046H455.5L479 1005L455.5 965Z" stroke="#3D16FB" stroke-width="3"/>
<path d="M596.5 965H550L526 1005L550 1046H596.5L620 1005L596.5 965Z" stroke="#3D16FB" stroke-width="3"/>
<path d="M737.5 965H691L667 1005L691 1046H737.5L761 1005L737.5 965Z" stroke="#3D16FB" stroke-width="3"/>
<path d="M878.5 965H832L808 1005L832 1046H878.5L902 1005L878.5 965Z" stroke="#3D16FB" stroke-width="3"/>
<path d="M1019.5 965H973L949 1005L973 1046H1019.5L1043 1005L1019.5 965Z" stroke="#3D16FB" stroke-width="3"/>
<path d="M1160.5 965H1114L1090 1005L1114 1046H1160.5L1184 1005L1160.5 965Z" stroke="#3D16FB" stroke-width="3"/>
<path d="M1301.5 965H1255L1231 1005L1255 1046H1301.5L1325 1005L1301.5 965Z" stroke="#3D16FB" stroke-width="3"/>
<path d="M1442.5 965H1396L1372 1005L1396 1046H1442.5L1466 1005L1442.5 965Z" stroke="#3D16FB" stroke-width="3"/>
<path d="M1583.5 965H1537L1513 1005L1537 1046H1583.5L1607 1005L1583.5 965Z" stroke="#3D16FB" stroke-width="3"/>
<path d="M1724.5 965H1678L1654 1005L1678 1046H1724.5L1748 1005L1724.5 965Z" stroke="#3D16FB" stroke-width="3"/>
<path d="M1865.5 965H1819L1795 1005L1819 1046H1865.5L1889 1005L1865.5 965Z" stroke="#3D16FB" stroke-width="3"/>
<path d="M102.5 925H56L32 965L56 1006H102.5L126 965L102.5 925Z" stroke="#3D16FB" stroke-width="3"/>
<path d="M243.5 925H197L173 965L197 1006H243.5L267 965L243.5 925Z" stroke="#3D16FB" stroke-width="3"/>
<path d="M384.5 925H338L314 965L338 1006H384.5L408 965L384.5 925Z" stroke="#3D16FB" stroke-width="3"/>
<path d="M525.5 925H479L455 965L479 1006H525.5L549 965L525.5 925Z" stroke="#3D16FB" stroke-width="3"/>
<path d="M666.5 925H620L596 965L620 1006H666.5L690 965L666.5 925Z" stroke="#3D16FB" stroke-width="3"/>
<path d="M807.5 925H761L737 965L761 1006H807.5L831 965L807.5 925Z" stroke="#3D16FB" stroke-width="3"/>
<path d="M948.5 925H902L878 965L902 1006H948.5L972 965L948.5 925Z" stroke="#3D16FB" stroke-width="3"/>
<path d="M1089.5 925H1043L1019 965L1043 1006H1089.5L1113 965L1089.5 925Z" stroke="#3D16FB" stroke-width="3"/>
<path d="M1230.5 925H1184L1160 965L1184 1006H1230.5L1254 965L1230.5 925Z" stroke="#3D16FB" stroke-width="3"/>
<path d="M1371.5 925H1325L1301 965L1325 1006H1371.5L1395 965L1371.5 925Z" stroke="#3D16FB" stroke-width="3"/>
<path d="M1512.5 925H1466L1442 965L1466 1006H1512.5L1536 965L1512.5 925Z" stroke="#3D16FB" stroke-width="3"/>
<path d="M1653.5 925H1607L1583 965L1607 1006H1653.5L1677 965L1653.5 925Z" stroke="#3D16FB" stroke-width="3"/>
<path d="M1794.5 925H1748L1724 965L1748 1006H1794.5L1818 965L1794.5 925Z" stroke="#3D16FB" stroke-width="3"/>
<path d="M1935.5 925H1889L1865 965L1889 1006H1935.5L1959 965L1935.5 925Z" stroke="#3D16FB" stroke-width="3"/>
<path d="M32.5 884H-14L-38 924L-14 965H32.5L56 924L32.5 884Z" stroke="#3D16FB" stroke-width="3"/>
<path d="M173.5 884H127L103 924L127 965H173.5L197 924L173.5 884Z" stroke="#3D16FB" stroke-width="3"/>
<path d="M314.5 884H268L244 924L268 965H314.5L338 924L314.5 884Z" stroke="#3D16FB" stroke-width="3"/>
<path d="M455.5 884H409L385 924L409 965H455.5L479 924L455.5 884Z" stroke="#3D16FB" stroke-width="3"/>
<path d="M596.5 884H550L526 924L550 965H596.5L620 924L596.5 884Z" stroke="#3D16FB" stroke-width="3"/>
<path d="M737.5 884H691L667 924L691 965H737.5L761 924L737.5 884Z" stroke="#3D16FB" stroke-width="3"/>
<path d="M878.5 884H832L808 924L832 965H878.5L902 924L878.5 884Z" stroke="#3D16FB" stroke-width="3"/>
<path d="M1019.5 884H973L949 924L973 965H1019.5L1043 924L1019.5 884Z" stroke="#3D16FB" stroke-width="3"/>
<path d="M1160.5 884H1114L1090 924L1114 965H1160.5L1184 924L1160.5 884Z" stroke="#3D16FB" stroke-width="3"/>
<path d="M1301.5 884H1255L1231 924L1255 965H1301.5L1325 924L1301.5 884Z" stroke="#3D16FB" stroke-width="3"/>
<path d="M1442.5 884H1396L1372 924L1396 965H1442.5L1466 924L1442.5 884Z" stroke="#3D16FB" stroke-width="3"/>
<path d="M1583.5 884H1537L1513 924L1537 965H1583.5L1607 924L1583.5 884Z" stroke="#3D16FB" stroke-width="3"/>
<path d="M1724.5 884H1678L1654 924L1678 965H1724.5L1748 924L1724.5 884Z" stroke="#3D16FB" stroke-width="3"/>
<path d="M1865.5 884H1819L1795 924L1819 965H1865.5L1889 924L1865.5 884Z" stroke="#3D16FB" stroke-width="3"/>
<path d="M102.5 844H56L32 884L56 925H102.5L126 884L102.5 844Z" stroke="#3D16FB" stroke-width="3"/>
<path d="M243.5 844H197L173 884L197 925H243.5L267 884L243.5 844Z" stroke="#3D16FB" stroke-width="3"/>
<path d="M384.5 844H338L314 884L338 925H384.5L408 884L384.5 844Z" stroke="#3D16FB" stroke-width="3"/>
<path d="M525.5 844H479L455 884L479 925H525.5L549 884L525.5 844Z" stroke="#3D16FB" stroke-width="3"/>
<path d="M666.5 844H620L596 884L620 925H666.5L690 884L666.5 844Z" stroke="#3D16FB" stroke-width="3"/>
<path d="M807.5 844H761L737 884L761 925H807.5L831 884L807.5 844Z" stroke="#3D16FB" stroke-width="3"/>
<path d="M948.5 844H902L878 884L902 925H948.5L972 884L948.5 844Z" stroke="#3D16FB" stroke-width="3"/>
<path d="M1089.5 844H1043L1019 884L1043 925H1089.5L1113 884L1089.5 844Z" stroke="#3D16FB" stroke-width="3"/>
<path d="M1230.5 844H1184L1160 884L1184 925H1230.5L1254 884L1230.5 844Z" stroke="#3D16FB" stroke-width="3"/>
<path d="M1371.5 844H1325L1301 884L1325 925H1371.5L1395 884L1371.5 844Z" stroke="#3D16FB" stroke-width="3"/>
<path d="M1512.5 844H1466L1442 884L1466 925H1512.5L1536 884L1512.5 844Z" stroke="#3D16FB" stroke-width="3"/>
<path d="M1653.5 844H1607L1583 884L1607 925H1653.5L1677 884L1653.5 844Z" stroke="#3D16FB" stroke-width="3"/>
<path d="M1794.5 844H1748L1724 884L1748 925H1794.5L1818 884L1794.5 844Z" stroke="#3D16FB" stroke-width="3"/>
<path d="M1935.5 844H1889L1865 884L1889 925H1935.5L1959 884L1935.5 844Z" stroke="#3D16FB" stroke-width="3"/>
<path d="M32.5 803H-14L-38 843L-14 884H32.5L56 843L32.5 803Z" stroke="#3D16FB" stroke-width="3"/>
<path d="M173.5 803H127L103 843L127 884H173.5L197 843L173.5 803Z" stroke="#3D16FB" stroke-width="3"/>
<path d="M314.5 803H268L244 843L268 884H314.5L338 843L314.5 803Z" stroke="#3D16FB" stroke-width="3"/>
<path d="M455.5 803H409L385 843L409 884H455.5L479 843L455.5 803Z" stroke="#3D16FB" stroke-width="3"/>
<path d="M596.5 803H550L526 843L550 884H596.5L620 843L596.5 803Z" stroke="#3D16FB" stroke-width="3"/>
<path d="M737.5 803H691L667 843L691 884H737.5L761 843L737.5 803Z" stroke="#3D16FB" stroke-width="3"/>
<path d="M878.5 803H832L808 843L832 884H878.5L902 843L878.5 803Z" stroke="#3D16FB" stroke-width="3"/>
<path d="M1019.5 803H973L949 843L973 884H1019.5L1043 843L1019.5 803Z" stroke="#3D16FB" stroke-width="3"/>
<path d="M1160.5 803H1114L1090 843L1114 884H1160.5L1184 843L1160.5 803Z" stroke="#3D16FB" stroke-width="3"/>
<path d="M1301.5 803H1255L1231 843L1255 884H1301.5L1325 843L1301.5 803Z" stroke="#3D16FB" stroke-width="3"/>
<path d="M1442.5 803H1396L1372 843L1396 884H1442.5L1466 843L1442.5 803Z" stroke="#3D16FB" stroke-width="3"/>
<path d="M1583.5 803H1537L1513 843L1537 884H1583.5L1607 843L1583.5 803Z" stroke="#3D16FB" stroke-width="3"/>
<path d="M1724.5 803H1678L1654 843L1678 884H1724.5L1748 843L1724.5 803Z" stroke="#3D16FB" stroke-width="3"/>
<path d="M1865.5 803H1819L1795 843L1819 884H1865.5L1889 843L1865.5 803Z" stroke="#3D16FB" stroke-width="3"/>
<path d="M102.5 763H56L32 803L56 844H102.5L126 803L102.5 763Z" stroke="#3D16FB" stroke-width="3"/>
<path d="M243.5 763H197L173 803L197 844H243.5L267 803L243.5 763Z" stroke="#3D16FB" stroke-width="3"/>
<path d="M384.5 763H338L314 803L338 844H384.5L408 803L384.5 763Z" stroke="#3D16FB" stroke-width="3"/>
<path d="M525.5 763H479L455 803L479 844H525.5L549 803L525.5 763Z" stroke="#3D16FB" stroke-width="3"/>
<path d="M666.5 763H620L596 803L620 844H666.5L690 803L666.5 763Z" stroke="#3D16FB" stroke-width="3"/>
<path d="M807.5 763H761L737 803L761 844H807.5L831 803L807.5 763Z" stroke="#3D16FB" stroke-width="3"/>
<path d="M948.5 763H902L878 803L902 844H948.5L972 803L948.5 763Z" stroke="#3D16FB" stroke-width="3"/>
<path d="M1089.5 763H1043L1019 803L1043 844H1089.5L1113 803L1089.5 763Z" stroke="#3D16FB" stroke-width="3"/>
<path d="M1230.5 763H1184L1160 803L1184 844H1230.5L1254 803L1230.5 763Z" stroke="#3D16FB" stroke-width="3"/>
<path d="M1371.5 763H1325L1301 803L1325 844H1371.5L1395 803L1371.5 763Z" stroke="#3D16FB" stroke-width="3"/>
<path d="M1512.5 763H1466L1442 803L1466 844H1512.5L1536 803L1512.5 763Z" stroke="#3D16FB" stroke-width="3"/>
<path d="M1653.5 763H1607L1583 803L1607 844H1653.5L1677 803L1653.5 763Z" stroke="#3D16FB" stroke-width="3"/>
<path d="M1794.5 763H1748L1724 803L1748 844H1794.5L1818 803L1794.5 763Z" stroke="#3D16FB" stroke-width="3"/>
<path d="M1935.5 763H1889L1865 803L1889 844H1935.5L1959 803L1935.5 763Z" stroke="#3D16FB" stroke-width="3"/>
<path d="M32.5 722H-14L-38 762L-14 803H32.5L56 762L32.5 722Z" stroke="#3D16FB" stroke-width="3"/>
<path d="M173.5 722H127L103 762L127 803H173.5L197 762L173.5 722Z" stroke="#3D16FB" stroke-width="3"/>
<path d="M314.5 722H268L244 762L268 803H314.5L338 762L314.5 722Z" stroke="#3D16FB" stroke-width="3"/>
<path d="M455.5 722H409L385 762L409 803H455.5L479 762L455.5 722Z" stroke="#3D16FB" stroke-width="3"/>
<path d="M596.5 722H550L526 762L550 803H596.5L620 762L596.5 722Z" stroke="#3D16FB" stroke-width="3"/>
<path d="M737.5 722H691L667 762L691 803H737.5L761 762L737.5 722Z" stroke="#3D16FB" stroke-width="3"/>
<path d="M878.5 722H832L808 762L832 803H878.5L902 762L878.5 722Z" stroke="#3D16FB" stroke-width="3"/>
<path d="M1019.5 722H973L949 762L973 803H1019.5L1043 762L1019.5 722Z" stroke="#3D16FB" stroke-width="3"/>
<path d="M1160.5 722H1114L1090 762L1114 803H1160.5L1184 762L1160.5 722Z" stroke="#3D16FB" stroke-width="3"/>
<path d="M1301.5 722H1255L1231 762L1255 803H1301.5L1325 762L1301.5 722Z" stroke="#3D16FB" stroke-width="3"/>
<path d="M1442.5 722H1396L1372 762L1396 803H1442.5L1466 762L1442.5 722Z" stroke="#3D16FB" stroke-width="3"/>
<path d="M1583.5 722H1537L1513 762L1537 803H1583.5L1607 762L1583.5 722Z" stroke="#3D16FB" stroke-width="3"/>
<path d="M1724.5 722H1678L1654 762L1678 803H1724.5L1748 762L1724.5 722Z" stroke="#3D16FB" stroke-width="3"/>
<path d="M1865.5 722H1819L1795 762L1819 803H1865.5L1889 762L1865.5 722Z" stroke="#3D16FB" stroke-width="3"/>
<path d="M102.5 682H56L32 722L56 763H102.5L126 722L102.5 682Z" stroke="#3D16FB" stroke-width="3"/>
<path d="M243.5 682H197L173 722L197 763H243.5L267 722L243.5 682Z" stroke="#3D16FB" stroke-width="3"/>
<path d="M384.5 682H338L314 722L338 763H384.5L408 722L384.5 682Z" stroke="#3D16FB" stroke-width="3"/>
<path d="M525.5 682H479L455 722L479 763H525.5L549 722L525.5 682Z" stroke="#3D16FB" stroke-width="3"/>
<path d="M666.5 682H620L596 722L620 763H666.5L690 722L666.5 682Z" stroke="#3D16FB" stroke-width="3"/>
<path d="M807.5 682H761L737 722L761 763H807.5L831 722L807.5 682Z" stroke="#3D16FB" stroke-width="3"/>
<path d="M948.5 682H902L878 722L902 763H948.5L972 722L948.5 682Z" stroke="#3D16FB" stroke-width="3"/>
<path d="M1089.5 682H1043L1019 722L1043 763H1089.5L1113 722L1089.5 682Z" stroke="#3D16FB" stroke-width="3"/>
<path d="M1230.5 682H1184L1160 722L1184 763H1230.5L1254 722L1230.5 682Z" stroke="#3D16FB" stroke-width="3"/>
<path d="M1371.5 682H1325L1301 722L1325 763H1371.5L1395 722L1371.5 682Z" stroke="#3D16FB" stroke-width="3"/>
<path d="M1512.5 682H1466L1442 722L1466 763H1512.5L1536 722L1512.5 682Z" stroke="#3D16FB" stroke-width="3"/>
<path d="M1653.5 682H1607L1583 722L1607 763H1653.5L1677 722L1653.5 682Z" stroke="#3D16FB" stroke-width="3"/>
<path d="M1794.5 682H1748L1724 722L1748 763H1794.5L1818 722L1794.5 682Z" stroke="#3D16FB" stroke-width="3"/>
<path d="M1935.5 682H1889L1865 722L1889 763H1935.5L1959 722L1935.5 682Z" stroke="#3D16FB" stroke-width="3"/>
<path d="M32.5 641H-14L-38 681L-14 722H32.5L56 681L32.5 641Z" stroke="#3D16FB" stroke-width="3"/>
<path d="M173.5 641H127L103 681L127 722H173.5L197 681L173.5 641Z" stroke="#3D16FB" stroke-width="3"/>
<path d="M314.5 641H268L244 681L268 722H314.5L338 681L314.5 641Z" stroke="#3D16FB" stroke-width="3"/>
<path d="M455.5 641H409L385 681L409 722H455.5L479 681L455.5 641Z" stroke="#3D16FB" stroke-width="3"/>
<path d="M596.5 641H550L526 681L550 722H596.5L620 681L596.5 641Z" stroke="#3D16FB" stroke-width="3"/>
<path d="M737.5 641H691L667 681L691 722H737.5L761 681L737.5 641Z" stroke="#3D16FB" stroke-width="3"/>
<path d="M878.5 641H832L808 681L832 722H878.5L902 681L878.5 641Z" stroke="#3D16FB" stroke-width="3"/>
<path d="M1019.5 641H973L949 681L973 722H1019.5L1043 681L1019.5 641Z" stroke="#3D16FB" stroke-width="3"/>
<path d="M1160.5 641H1114L1090 681L1114 722H1160.5L1184 681L1160.5 641Z" stroke="#3D16FB" stroke-width="3"/>
<path d="M1301.5 641H1255L1231 681L1255 722H1301.5L1325 681L1301.5 641Z" stroke="#3D16FB" stroke-width="3"/>
<path d="M1442.5 641H1396L1372 681L1396 722H1442.5L1466 681L1442.5 641Z" stroke="#3D16FB" stroke-width="3"/>
<path d="M1583.5 641H1537L1513 681L1537 722H1583.5L1607 681L1583.5 641Z" stroke="#3D16FB" stroke-width="3"/>
<path d="M1724.5 641H1678L1654 681L1678 722H1724.5L1748 681L1724.5 641Z" stroke="#3D16FB" stroke-width="3"/>
<path d="M1865.5 641H1819L1795 681L1819 722H1865.5L1889 681L1865.5 641Z" stroke="#3D16FB" stroke-width="3"/>
<path d="M102.5 601H56L32 641L56 682H102.5L126 641L102.5 601Z" stroke="#3D16FB" stroke-width="3"/>
<path d="M243.5 601H197L173 641L197 682H243.5L267 641L243.5 601Z" stroke="#3D16FB" stroke-width="3"/>
<path d="M384.5 601H338L314 641L338 682H384.5L408 641L384.5 601Z" stroke="#3D16FB" stroke-width="3"/>
<path d="M525.5 601H479L455 641L479 682H525.5L549 641L525.5 601Z" stroke="#3D16FB" stroke-width="3"/>
<path d="M666.5 601H620L596 641L620 682H666.5L690 641L666.5 601Z" stroke="#3D16FB" stroke-width="3"/>
<path d="M807.5 601H761L737 641L761 682H807.5L831 641L807.5 601Z" stroke="#3D16FB" stroke-width="3"/>
<path d="M948.5 601H902L878 641L902 682H948.5L972 641L948.5 601Z" stroke="#3D16FB" stroke-width="3"/>
<path d="M1089.5 601H1043L1019 641L1043 682H1089.5L1113 641L1089.5 601Z" stroke="#3D16FB" stroke-width="3"/>
<path d="M1230.5 601H1184L1160 641L1184 682H1230.5L1254 641L1230.5 601Z" stroke="#3D16FB" stroke-width="3"/>
<path d="M1371.5 601H1325L1301 641L1325 682H1371.5L1395 641L1371.5 601Z" stroke="#3D16FB" stroke-width="3"/>
<path d="M1512.5 601H1466L1442 641L1466 682H1512.5L1536 641L1512.5 601Z" stroke="#3D16FB" stroke-width="3"/>
<path d="M1653.5 601H1607L1583 641L1607 682H1653.5L1677 641L1653.5 601Z" stroke="#3D16FB" stroke-width="3"/>
<path d="M1794.5 601H1748L1724 641L1748 682H1794.5L1818 641L1794.5 601Z" stroke="#3D16FB" stroke-width="3"/>
<path d="M1935.5 601H1889L1865 641L1889 682H1935.5L1959 641L1935.5 601Z" stroke="#3D16FB" stroke-width="3"/>
<path d="M32.5 560H-14L-38 600L-14 641H32.5L56 600L32.5 560Z" stroke="#3D16FB" stroke-width="3"/>
<path d="M173.5 560H127L103 600L127 641H173.5L197 600L173.5 560Z" stroke="#3D16FB" stroke-width="3"/>
<path d="M314.5 560H268L244 600L268 641H314.5L338 600L314.5 560Z" stroke="#3D16FB" stroke-width="3"/>
<path d="M455.5 560H409L385 600L409 641H455.5L479 600L455.5 560Z" stroke="#3D16FB" stroke-width="3"/>
<path d="M596.5 560H550L526 600L550 641H596.5L620 600L596.5 560Z" stroke="#3D16FB" stroke-width="3"/>
<path d="M737.5 560H691L667 600L691 641H737.5L761 600L737.5 560Z" stroke="#3D16FB" stroke-width="3"/>
<path d="M878.5 560H832L808 600L832 641H878.5L902 600L878.5 560Z" stroke="#3D16FB" stroke-width="3"/>
<path d="M1019.5 560H973L949 600L973 641H1019.5L1043 600L1019.5 560Z" stroke="#3D16FB" stroke-width="3"/>
<path d="M1160.5 560H1114L1090 600L1114 641H1160.5L1184 600L1160.5 560Z" stroke="#3D16FB" stroke-width="3"/>
<path d="M1301.5 560H1255L1231 600L1255 641H1301.5L1325 600L1301.5 560Z" stroke="#3D16FB" stroke-width="3"/>
<path d="M1442.5 560H1396L1372 600L1396 641H1442.5L1466 600L1442.5 560Z" stroke="#3D16FB" stroke-width="3"/>
<path d="M1583.5 560H1537L1513 600L1537 641H1583.5L1607 600L1583.5 560Z" stroke="#3D16FB" stroke-width="3"/>
<path d="M1724.5 560H1678L1654 600L1678 641H1724.5L1748 600L1724.5 560Z" stroke="#3D16FB" stroke-width="3"/>
<path d="M1865.5 560H1819L1795 600L1819 641H1865.5L1889 600L1865.5 560Z" stroke="#3D16FB" stroke-width="3"/>
<path d="M102.5 520H56L32 560L56 601H102.5L126 560L102.5 520Z" stroke="#3D16FB" stroke-width="3"/>
<path d="M243.5 520H197L173 560L197 601H243.5L267 560L243.5 520Z" stroke="#3D16FB" stroke-width="3"/>
<path d="M384.5 520H338L314 560L338 601H384.5L408 560L384.5 520Z" stroke="#3D16FB" stroke-width="3"/>
<path d="M525.5 520H479L455 560L479 601H525.5L549 560L525.5 520Z" stroke="#3D16FB" stroke-width="3"/>
<path d="M666.5 520H620L596 560L620 601H666.5L690 560L666.5 520Z" stroke="#3D16FB" stroke-width="3"/>
<path d="M807.5 520H761L737 560L761 601H807.5L831 560L807.5 520Z" stroke="#3D16FB" stroke-width="3"/>
<path d="M948.5 520H902L878 560L902 601H948.5L972 560L948.5 520Z" stroke="#3D16FB" stroke-width="3"/>
<path d="M1089.5 520H1043L1019 560L1043 601H1089.5L1113 560L1089.5 520Z" stroke="#3D16FB" stroke-width="3"/>
<path d="M1230.5 520H1184L1160 560L1184 601H1230.5L1254 560L1230.5 520Z" stroke="#3D16FB" stroke-width="3"/>
<path d="M1371.5 520H1325L1301 560L1325 601H1371.5L1395 560L1371.5 520Z" stroke="#3D16FB" stroke-width="3"/>
<path d="M1512.5 520H1466L1442 560L1466 601H1512.5L1536 560L1512.5 520Z" stroke="#3D16FB" stroke-width="3"/>
<path d="M1653.5 520H1607L1583 560L1607 601H1653.5L1677 560L1653.5 520Z" stroke="#3D16FB" stroke-width="3"/>
<path d="M1794.5 520H1748L1724 560L1748 601H1794.5L1818 560L1794.5 520Z" stroke="#3D16FB" stroke-width="3"/>
<path d="M1935.5 520H1889L1865 560L1889 601H1935.5L1959 560L1935.5 520Z" stroke="#3D16FB" stroke-width="3"/>
<path d="M32.5 479H-14L-38 519L-14 560H32.5L56 519L32.5 479Z" stroke="#3D16FB" stroke-width="3"/>
<path d="M173.5 479H127L103 519L127 560H173.5L197 519L173.5 479Z" stroke="#3D16FB" stroke-width="3"/>
<path d="M314.5 479H268L244 519L268 560H314.5L338 519L314.5 479Z" stroke="#3D16FB" stroke-width="3"/>
<path d="M455.5 479H409L385 519L409 560H455.5L479 519L455.5 479Z" stroke="#3D16FB" stroke-width="3"/>
<path d="M596.5 479H550L526 519L550 560H596.5L620 519L596.5 479Z" stroke="#3D16FB" stroke-width="3"/>
<path d="M737.5 479H691L667 519L691 560H737.5L761 519L737.5 479Z" stroke="#3D16FB" stroke-width="3"/>
<path d="M878.5 479H832L808 519L832 560H878.5L902 519L878.5 479Z" stroke="#3D16FB" stroke-width="3"/>
<path d="M1019.5 479H973L949 519L973 560H1019.5L1043 519L1019.5 479Z" stroke="#3D16FB" stroke-width="3"/>
<path d="M1160.5 479H1114L1090 519L1114 560H1160.5L1184 519L1160.5 479Z" stroke="#3D16FB" stroke-width="3"/>
<path d="M1301.5 479H1255L1231 519L1255 560H1301.5L1325 519L1301.5 479Z" stroke="#3D16FB" stroke-width="3"/>
<path d="M1442.5 479H1396L1372 519L1396 560H1442.5L1466 519L1442.5 479Z" stroke="#3D16FB" stroke-width="3"/>
<path d="M1583.5 479H1537L1513 519L1537 560H1583.5L1607 519L1583.5 479Z" stroke="#3D16FB" stroke-width="3"/>
<path d="M1724.5 479H1678L1654 519L1678 560H1724.5L1748 519L1724.5 479Z" stroke="#3D16FB" stroke-width="3"/>
<path d="M1865.5 479H1819L1795 519L1819 560H1865.5L1889 519L1865.5 479Z" stroke="#3D16FB" stroke-width="3"/>
<path d="M102.5 439H56L32 479L56 520H102.5L126 479L102.5 439Z" stroke="#3D16FB" stroke-width="3"/>
<path d="M243.5 439H197L173 479L197 520H243.5L267 479L243.5 439Z" stroke="#3D16FB" stroke-width="3"/>
<path d="M384.5 439H338L314 479L338 520H384.5L408 479L384.5 439Z" stroke="#3D16FB" stroke-width="3"/>
<path d="M525.5 439H479L455 479L479 520H525.5L549 479L525.5 439Z" stroke="#3D16FB" stroke-width="3"/>
<path d="M666.5 439H620L596 479L620 520H666.5L690 479L666.5 439Z" stroke="#3D16FB" stroke-width="3"/>
<path d="M807.5 439H761L737 479L761 520H807.5L831 479L807.5 439Z" stroke="#3D16FB" stroke-width="3"/>
<path d="M948.5 439H902L878 479L902 520H948.5L972 479L948.5 439Z" stroke="#3D16FB" stroke-width="3"/>
<path d="M1089.5 439H1043L1019 479L1043 520H1089.5L1113 479L1089.5 439Z" stroke="#3D16FB" stroke-width="3"/>
<path d="M1230.5 439H1184L1160 479L1184 520H1230.5L1254 479L1230.5 439Z" stroke="#3D16FB" stroke-width="3"/>
<path d="M1371.5 439H1325L1301 479L1325 520H1371.5L1395 479L1371.5 439Z" stroke="#3D16FB" stroke-width="3"/>
<path d="M1512.5 439H1466L1442 479L1466 520H1512.5L1536 479L1512.5 439Z" stroke="#3D16FB" stroke-width="3"/>
<path d="M1653.5 439H1607L1583 479L1607 520H1653.5L1677 479L1653.5 439Z" stroke="#3D16FB" stroke-width="3"/>
<path d="M1794.5 439H1748L1724 479L1748 520H1794.5L1818 479L1794.5 439Z" stroke="#3D16FB" stroke-width="3"/>
<path d="M1935.5 439H1889L1865 479L1889 520H1935.5L1959 479L1935.5 439Z" stroke="#3D16FB" stroke-width="3"/>
<path d="M32.5 398H-14L-38 438L-14 479H32.5L56 438L32.5 398Z" stroke="#3D16FB" stroke-width="3"/>
<path d="M173.5 398H127L103 438L127 479H173.5L197 438L173.5 398Z" stroke="#3D16FB" stroke-width="3"/>
<path d="M314.5 398H268L244 438L268 479H314.5L338 438L314.5 398Z" stroke="#3D16FB" stroke-width="3"/>
<path d="M455.5 398H409L385 438L409 479H455.5L479 438L455.5 398Z" stroke="#3D16FB" stroke-width="3"/>
<path d="M596.5 398H550L526 438L550 479H596.5L620 438L596.5 398Z" stroke="#3D16FB" stroke-width="3"/>
<path d="M737.5 398H691L667 438L691 479H737.5L761 438L737.5 398Z" stroke="#3D16FB" stroke-width="3"/>
<path d="M878.5 398H832L808 438L832 479H878.5L902 438L878.5 398Z" stroke="#3D16FB" stroke-width="3"/>
<path d="M1019.5 398H973L949 438L973 479H1019.5L1043 438L1019.5 398Z" stroke="#3D16FB" stroke-width="3"/>
<path d="M1160.5 398H1114L1090 438L1114 479H1160.5L1184 438L1160.5 398Z" stroke="#3D16FB" stroke-width="3"/>
<path d="M1301.5 398H1255L1231 438L1255 479H1301.5L1325 438L1301.5 398Z" stroke="#3D16FB" stroke-width="3"/>
<path d="M1442.5 398H1396L1372 438L1396 479H1442.5L1466 438L1442.5 398Z" stroke="#3D16FB" stroke-width="3"/>
<path d="M1583.5 398H1537L1513 438L1537 479H1583.5L1607 438L1583.5 398Z" stroke="#3D16FB" stroke-width="3"/>
<path d="M1724.5 398H1678L1654 438L1678 479H1724.5L1748 438L1724.5 398Z" stroke="#3D16FB" stroke-width="3"/>
<path d="M1865.5 398H1819L1795 438L1819 479H1865.5L1889 438L1865.5 398Z" stroke="#3D16FB" stroke-width="3"/>
<path d="M102.5 358H56L32 398L56 439H102.5L126 398L102.5 358Z" stroke="#3D16FB" stroke-width="3"/>
<path d="M243.5 358H197L173 398L197 439H243.5L267 398L243.5 358Z" stroke="#3D16FB" stroke-width="3"/>
<path d="M384.5 358H338L314 398L338 439H384.5L408 398L384.5 358Z" stroke="#3D16FB" stroke-width="3"/>
<path d="M525.5 358H479L455 398L479 439H525.5L549 398L525.5 358Z" stroke="#3D16FB" stroke-width="3"/>
<path d="M666.5 358H620L596 398L620 439H666.5L690 398L666.5 358Z" stroke="#3D16FB" stroke-width="3"/>
<path d="M807.5 358H761L737 398L761 439H807.5L831 398L807.5 358Z" stroke="#3D16FB" stroke-width="3"/>
<path d="M948.5 358H902L878 398L902 439H948.5L972 398L948.5 358Z" stroke="#3D16FB" stroke-width="3"/>
<path d="M1089.5 358H1043L1019 398L1043 439H1089.5L1113 398L1089.5 358Z" stroke="#3D16FB" stroke-width="3"/>
<path d="M1230.5 358H1184L1160 398L1184 439H1230.5L1254 398L1230.5 358Z" stroke="#3D16FB" stroke-width="3"/>
<path d="M1371.5 358H1325L1301 398L1325 439H1371.5L1395 398L1371.5 358Z" stroke="#3D16FB" stroke-width="3"/>
<path d="M1512.5 358H1466L1442 398L1466 439H1512.5L1536 398L1512.5 358Z" stroke="#3D16FB" stroke-width="3"/>
<path d="M1653.5 358H1607L1583 398L1607 439H1653.5L1677 398L1653.5 358Z" stroke="#3D16FB" stroke-width="3"/>
<path d="M1794.5 358H1748L1724 398L1748 439H1794.5L1818 398L1794.5 358Z" stroke="#3D16FB" stroke-width="3"/>
<path d="M1935.5 358H1889L1865 398L1889 439H1935.5L1959 398L1935.5 358Z" stroke="#3D16FB" stroke-width="3"/>
<path d="M32.5 317H-14L-38 357L-14 398H32.5L56 357L32.5 317Z" stroke="#3D16FB" stroke-width="3"/>
<path d="M173.5 317H127L103 357L127 398H173.5L197 357L173.5 317Z" stroke="#3D16FB" stroke-width="3"/>
<path d="M314.5 317H268L244 357L268 398H314.5L338 357L314.5 317Z" stroke="#3D16FB" stroke-width="3"/>
<path d="M455.5 317H409L385 357L409 398H455.5L479 357L455.5 317Z" stroke="#3D16FB" stroke-width="3"/>
<path d="M596.5 317H550L526 357L550 398H596.5L620 357L596.5 317Z" stroke="#3D16FB" stroke-width="3"/>
<path d="M737.5 317H691L667 357L691 398H737.5L761 357L737.5 317Z" stroke="#3D16FB" stroke-width="3"/>
<path d="M878.5 317H832L808 357L832 398H878.5L902 357L878.5 317Z" stroke="#3D16FB" stroke-width="3"/>
<path d="M1019.5 317H973L949 357L973 398H1019.5L1043 357L1019.5 317Z" stroke="#3D16FB" stroke-width="3"/>
<path d="M1160.5 317H1114L1090 357L1114 398H1160.5L1184 357L1160.5 317Z" stroke="#3D16FB" stroke-width="3"/>
<path d="M1301.5 317H1255L1231 357L1255 398H1301.5L1325 357L1301.5 317Z" stroke="#3D16FB" stroke-width="3"/>
<path d="M1442.5 317H1396L1372 357L1396 398H1442.5L1466 357L1442.5 317Z" stroke="#3D16FB" stroke-width="3"/>
<path d="M1583.5 317H1537L1513 357L1537 398H1583.5L1607 357L1583.5 317Z" stroke="#3D16FB" stroke-width="3"/>
<path d="M1724.5 317H1678L1654 357L1678 398H1724.5L1748 357L1724.5 317Z" stroke="#3D16FB" stroke-width="3"/>
<path d="M1865.5 317H1819L1795 357L1819 398H1865.5L1889 357L1865.5 317Z" stroke="#3D16FB" stroke-width="3"/>
<path d="M102.5 277H56L32 317L56 358H102.5L126 317L102.5 277Z" stroke="#3D16FB" stroke-width="3"/>
<path d="M243.5 277H197L173 317L197 358H243.5L267 317L243.5 277Z" stroke="#3D16FB" stroke-width="3"/>
<path d="M384.5 277H338L314 317L338 358H384.5L408 317L384.5 277Z" stroke="#3D16FB" stroke-width="3"/>
<path d="M525.5 277H479L455 317L479 358H525.5L549 317L525.5 277Z" stroke="#3D16FB" stroke-width="3"/>
<path d="M666.5 277H620L596 317L620 358H666.5L690 317L666.5 277Z" stroke="#3D16FB" stroke-width="3"/>
<path d="M807.5 277H761L737 317L761 358H807.5L831 317L807.5 277Z" stroke="#3D16FB" stroke-width="3"/>
<path d="M948.5 277H902L878 317L902 358H948.5L972 317L948.5 277Z" stroke="#3D16FB" stroke-width="3"/>
<path d="M1089.5 277H1043L1019 317L1043 358H1089.5L1113 317L1089.5 277Z" stroke="#3D16FB" stroke-width="3"/>
<path d="M1230.5 277H1184L1160 317L1184 358H1230.5L1254 317L1230.5 277Z" stroke="#3D16FB" stroke-width="3"/>
<path d="M1371.5 277H1325L1301 317L1325 358H1371.5L1395 317L1371.5 277Z" stroke="#3D16FB" stroke-width="3"/>
<path d="M1512.5 277H1466L1442 317L1466 358H1512.5L1536 317L1512.5 277Z" stroke="#3D16FB" stroke-width="3"/>
<path d="M1653.5 277H1607L1583 317L1607 358H1653.5L1677 317L1653.5 277Z" stroke="#3D16FB" stroke-width="3"/>
<path d="M1794.5 277H1748L1724 317L1748 358H1794.5L1818 317L1794.5 277Z" stroke="#3D16FB" stroke-width="3"/>
<path d="M1935.5 277H1889L1865 317L1889 358H1935.5L1959 317L1935.5 277Z" stroke="#3D16FB" stroke-width="3"/>
<path d="M32.5 236H-14L-38 276L-14 317H32.5L56 276L32.5 236Z" stroke="#3D16FB" stroke-width="3"/>
<path d="M173.5 236H127L103 276L127 317H173.5L197 276L173.5 236Z" stroke="#3D16FB" stroke-width="3"/>
<path d="M314.5 236H268L244 276L268 317H314.5L338 276L314.5 236Z" stroke="#3D16FB" stroke-width="3"/>
<path d="M455.5 236H409L385 276L409 317H455.5L479 276L455.5 236Z" stroke="#3D16FB" stroke-width="3"/>
<path d="M596.5 236H550L526 276L550 317H596.5L620 276L596.5 236Z" stroke="#3D16FB" stroke-width="3"/>
<path d="M737.5 236H691L667 276L691 317H737.5L761 276L737.5 236Z" stroke="#3D16FB" stroke-width="3"/>
<path d="M878.5 236H832L808 276L832 317H878.5L902 276L878.5 236Z" stroke="#3D16FB" stroke-width="3"/>
<path d="M1019.5 236H973L949 276L973 317H1019.5L1043 276L1019.5 236Z" stroke="#3D16FB" stroke-width="3"/>
<path d="M1160.5 236H1114L1090 276L1114 317H1160.5L1184 276L1160.5 236Z" stroke="#3D16FB" stroke-width="3"/>
<path d="M1301.5 236H1255L1231 276L1255 317H1301.5L1325 276L1301.5 236Z" stroke="#3D16FB" stroke-width="3"/>
<path d="M1442.5 236H1396L1372 276L1396 317H1442.5L1466 276L1442.5 236Z" stroke="#3D16FB" stroke-width="3"/>
<path d="M1583.5 236H1537L1513 276L1537 317H1583.5L1607 276L1583.5 236Z" stroke="#3D16FB" stroke-width="3"/>
<path d="M1724.5 236H1678L1654 276L1678 317H1724.5L1748 276L1724.5 236Z" stroke="#3D16FB" stroke-width="3"/>
<path d="M1865.5 236H1819L1795 276L1819 317H1865.5L1889 276L1865.5 236Z" stroke="#3D16FB" stroke-width="3"/>
<path d="M102.5 196H56L32 236L56 277H102.5L126 236L102.5 196Z" stroke="#3D16FB" stroke-width="3"/>
<path d="M243.5 196H197L173 236L197 277H243.5L267 236L243.5 196Z" stroke="#3D16FB" stroke-width="3"/>
<path d="M384.5 196H338L314 236L338 277H384.5L408 236L384.5 196Z" stroke="#3D16FB" stroke-width="3"/>
<path d="M525.5 196H479L455 236L479 277H525.5L549 236L525.5 196Z" stroke="#3D16FB" stroke-width="3"/>
<path d="M666.5 196H620L596 236L620 277H666.5L690 236L666.5 196Z" stroke="#3D16FB" stroke-width="3"/>
<path d="M807.5 196H761L737 236L761 277H807.5L831 236L807.5 196Z" stroke="#3D16FB" stroke-width="3"/>
<path d="M948.5 196H902L878 236L902 277H948.5L972 236L948.5 196Z" stroke="#3D16FB" stroke-width="3"/>
<path d="M1089.5 196H1043L1019 236L1043 277H1089.5L1113 236L1089.5 196Z" stroke="#3D16FB" stroke-width="3"/>
<path d="M1230.5 196H1184L1160 236L1184 277H1230.5L1254 236L1230.5 196Z" stroke="#3D16FB" stroke-width="3"/>
<path d="M1371.5 196H1325L1301 236L1325 277H1371.5L1395 236L1371.5 196Z" stroke="#3D16FB" stroke-width="3"/>
<path d="M1512.5 196H1466L1442 236L1466 277H1512.5L1536 236L1512.5 196Z" stroke="#3D16FB" stroke-width="3"/>
<path d="M1653.5 196H1607L1583 236L1607 277H1653.5L1677 236L1653.5 196Z" stroke="#3D16FB" stroke-width="3"/>
<path d="M1794.5 196H1748L1724 236L1748 277H1794.5L1818 236L1794.5 196Z" stroke="#3D16FB" stroke-width="3"/>
<path d="M1935.5 196H1889L1865 236L1889 277H1935.5L1959 236L1935.5 196Z" stroke="#3D16FB" stroke-width="3"/>
<path d="M32.5 155H-14L-38 195L-14 236H32.5L56 195L32.5 155Z" stroke="#3D16FB" stroke-width="3"/>
<path d="M173.5 155H127L103 195L127 236H173.5L197 195L173.5 155Z" stroke="#3D16FB" stroke-width="3"/>
<path d="M314.5 155H268L244 195L268 236H314.5L338 195L314.5 155Z" stroke="#3D16FB" stroke-width="3"/>
<path d="M455.5 155H409L385 195L409 236H455.5L479 195L455.5 155Z" stroke="#3D16FB" stroke-width="3"/>
<path d="M596.5 155H550L526 195L550 236H596.5L620 195L596.5 155Z" stroke="#3D16FB" stroke-width="3"/>
<path d="M737.5 155H691L667 195L691 236H737.5L761 195L737.5 155Z" stroke="#3D16FB" stroke-width="3"/>
<path d="M878.5 155H832L808 195L832 236H878.5L902 195L878.5 155Z" stroke="#3D16FB" stroke-width="3"/>
<path d="M1019.5 155H973L949 195L973 236H1019.5L1043 195L1019.5 155Z" stroke="#3D16FB" stroke-width="3"/>
<path d="M1160.5 155H1114L1090 195L1114 236H1160.5L1184 195L1160.5 155Z" stroke="#3D16FB" stroke-width="3"/>
<path d="M1301.5 155H1255L1231 195L1255 236H1301.5L1325 195L1301.5 155Z" stroke="#3D16FB" stroke-width="3"/>
<path d="M1442.5 155H1396L1372 195L1396 236H1442.5L1466 195L1442.5 155Z" stroke="#3D16FB" stroke-width="3"/>
<path d="M1583.5 155H1537L1513 195L1537 236H1583.5L1607 195L1583.5 155Z" stroke="#3D16FB" stroke-width="3"/>
<path d="M1724.5 155H1678L1654 195L1678 236H1724.5L1748 195L1724.5 155Z" stroke="#3D16FB" stroke-width="3"/>
<path d="M1865.5 155H1819L1795 195L1819 236H1865.5L1889 195L1865.5 155Z" stroke="#3D16FB" stroke-width="3"/>
<path d="M102.5 115H56L32 155L56 196H102.5L126 155L102.5 115Z" stroke="#3D16FB" stroke-width="3"/>
<path d="M243.5 115H197L173 155L197 196H243.5L267 155L243.5 115Z" stroke="#3D16FB" stroke-width="3"/>
<path d="M384.5 115H338L314 155L338 196H384.5L408 155L384.5 115Z" stroke="#3D16FB" stroke-width="3"/>
<path d="M525.5 115H479L455 155L479 196H525.5L549 155L525.5 115Z" stroke="#3D16FB" stroke-width="3"/>
<path d="M666.5 115H620L596 155L620 196H666.5L690 155L666.5 115Z" stroke="#3D16FB" stroke-width="3"/>
<path d="M807.5 115H761L737 155L761 196H807.5L831 155L807.5 115Z" stroke="#3D16FB" stroke-width="3"/>
<path d="M948.5 115H902L878 155L902 196H948.5L972 155L948.5 115Z" stroke="#3D16FB" stroke-width="3"/>
<path d="M1089.5 115H1043L1019 155L1043 196H1089.5L1113 155L1089.5 115Z" stroke="#3D16FB" stroke-width="3"/>
<path d="M1230.5 115H1184L1160 155L1184 196H1230.5L1254 155L1230.5 115Z" stroke="#3D16FB" stroke-width="3"/>
<path d="M1371.5 115H1325L1301 155L1325 196H1371.5L1395 155L1371.5 115Z" stroke="#3D16FB" stroke-width="3"/>
<path d="M1512.5 115H1466L1442 155L1466 196H1512.5L1536 155L1512.5 115Z" stroke="#3D16FB" stroke-width="3"/>
<path d="M1653.5 115H1607L1583 155L1607 196H1653.5L1677 155L1653.5 115Z" stroke="#3D16FB" stroke-width="3"/>
<path d="M1794.5 115H1748L1724 155L1748 196H1794.5L1818 155L1794.5 115Z" stroke="#3D16FB" stroke-width="3"/>
<path d="M1935.5 115H1889L1865 155L1889 196H1935.5L1959 155L1935.5 115Z" stroke="#3D16FB" stroke-width="3"/>
<path d="M32.5 74H-14L-38 114L-14 155H32.5L56 114L32.5 74Z" stroke="#3D16FB" stroke-width="3"/>
<path d="M173.5 74H127L103 114L127 155H173.5L197 114L173.5 74Z" stroke="#3D16FB" stroke-width="3"/>
<path d="M314.5 74H268L244 114L268 155H314.5L338 114L314.5 74Z" stroke="#3D16FB" stroke-width="3"/>
<path d="M455.5 74H409L385 114L409 155H455.5L479 114L455.5 74Z" stroke="#3D16FB" stroke-width="3"/>
<path d="M596.5 74H550L526 114L550 155H596.5L620 114L596.5 74Z" stroke="#3D16FB" stroke-width="3"/>
<path d="M737.5 74H691L667 114L691 155H737.5L761 114L737.5 74Z" stroke="#3D16FB" stroke-width="3"/>
<path d="M878.5 74H832L808 114L832 155H878.5L902 114L878.5 74Z" stroke="#3D16FB" stroke-width="3"/>
<path d="M1019.5 74H973L949 114L973 155H1019.5L1043 114L1019.5 74Z" stroke="#3D16FB" stroke-width="3"/>
<path d="M1160.5 74H1114L1090 114L1114 155H1160.5L1184 114L1160.5 74Z" stroke="#3D16FB" stroke-width="3"/>
<path d="M1301.5 74H1255L1231 114L1255 155H1301.5L1325 114L1301.5 74Z" stroke="#3D16FB" stroke-width="3"/>
<path d="M1442.5 74H1396L1372 114L1396 155H1442.5L1466 114L1442.5 74Z" stroke="#3D16FB" stroke-width="3"/>
<path d="M1583.5 74H1537L1513 114L1537 155H1583.5L1607 114L1583.5 74Z" stroke="#3D16FB" stroke-width="3"/>
<path d="M1724.5 74H1678L1654 114L1678 155H1724.5L1748 114L1724.5 74Z" stroke="#3D16FB" stroke-width="3"/>
<path d="M1865.5 74H1819L1795 114L1819 155H1865.5L1889 114L1865.5 74Z" stroke="#3D16FB" stroke-width="3"/>
<path d="M102.5 34H56L32 74L56 115H102.5L126 74L102.5 34Z" stroke="#3D16FB" stroke-width="3"/>
<path d="M243.5 34H197L173 74L197 115H243.5L267 74L243.5 34Z" stroke="#3D16FB" stroke-width="3"/>
<path d="M384.5 34H338L314 74L338 115H384.5L408 74L384.5 34Z" stroke="#3D16FB" stroke-width="3"/>
<path d="M525.5 34H479L455 74L479 115H525.5L549 74L525.5 34Z" stroke="#3D16FB" stroke-width="3"/>
<path d="M666.5 34H620L596 74L620 115H666.5L690 74L666.5 34Z" stroke="#3D16FB" stroke-width="3"/>
<path d="M807.5 34H761L737 74L761 115H807.5L831 74L807.5 34Z" stroke="#3D16FB" stroke-width="3"/>
<path d="M948.5 34H902L878 74L902 115H948.5L972 74L948.5 34Z" stroke="#3D16FB" stroke-width="3"/>
<path d="M1089.5 34H1043L1019 74L1043 115H1089.5L1113 74L1089.5 34Z" stroke="#3D16FB" stroke-width="3"/>
<path d="M1230.5 34H1184L1160 74L1184 115H1230.5L1254 74L1230.5 34Z" stroke="#3D16FB" stroke-width="3"/>
<path d="M1371.5 34H1325L1301 74L1325 115H1371.5L1395 74L1371.5 34Z" stroke="#3D16FB" stroke-width="3"/>
<path d="M1512.5 34H1466L1442 74L1466 115H1512.5L1536 74L1512.5 34Z" stroke="#3D16FB" stroke-width="3"/>
<path d="M1653.5 34H1607L1583 74L1607 115H1653.5L1677 74L1653.5 34Z" stroke="#3D16FB" stroke-width="3"/>
<path d="M1794.5 34H1748L1724 74L1748 115H1794.5L1818 74L1794.5 34Z" stroke="#3D16FB" stroke-width="3"/>
<path d="M1935.5 34H1889L1865 74L1889 115H1935.5L1959 74L1935.5 34Z" stroke="#3D16FB" stroke-width="3"/>
<path d="M32.5 -7H-14L-38 33L-14 74H32.5L56 33L32.5 -7Z" stroke="#3D16FB" stroke-width="3"/>
<path d="M173.5 -7H127L103 33L127 74H173.5L197 33L173.5 -7Z" stroke="#3D16FB" stroke-width="3"/>
<path d="M314.5 -7H268L244 33L268 74H314.5L338 33L314.5 -7Z" stroke="#3D16FB" stroke-width="3"/>
<path d="M455.5 -7H409L385 33L409 74H455.5L479 33L455.5 -7Z" stroke="#3D16FB" stroke-width="3"/>
<path d="M596.5 -7H550L526 33L550 74H596.5L620 33L596.5 -7Z" stroke="#3D16FB" stroke-width="3"/>
<path d="M737.5 -7H691L667 33L691 74H737.5L761 33L737.5 -7Z" stroke="#3D16FB" stroke-width="3"/>
<path d="M878.5 -7H832L808 33L832 74H878.5L902 33L878.5 -7Z" stroke="#3D16FB" stroke-width="3"/>
<path d="M1019.5 -7H973L949 33L973 74H1019.5L1043 33L1019.5 -7Z" stroke="#3D16FB" stroke-width="3"/>
<path d="M1160.5 -7H1114L1090 33L1114 74H1160.5L1184 33L1160.5 -7Z" stroke="#3D16FB" stroke-width="3"/>
<path d="M1301.5 -7H1255L1231 33L1255 74H1301.5L1325 33L1301.5 -7Z" stroke="#3D16FB" stroke-width="3"/>
<path d="M1442.5 -7H1396L1372 33L1396 74H1442.5L1466 33L1442.5 -7Z" stroke="#3D16FB" stroke-width="3"/>
<path d="M1583.5 -7H1537L1513 33L1537 74H1583.5L1607 33L1583.5 -7Z" stroke="#3D16FB" stroke-width="3"/>
<path d="M1724.5 -7H1678L1654 33L1678 74H1724.5L1748 33L1724.5 -7Z" stroke="#3D16FB" stroke-width="3"/>
<path d="M1865.5 -7H1819L1795 33L1819 74H1865.5L1889 33L1865.5 -7Z" stroke="#3D16FB" stroke-width="3"/>
<path d="M102.5 -47H56L32 -7L56 34H102.5L126 -7L102.5 -47Z" stroke="#3D16FB" stroke-width="3"/>
<path d="M243.5 -47H197L173 -7L197 34H243.5L267 -7L243.5 -47Z" stroke="#3D16FB" stroke-width="3"/>
<path d="M384.5 -47H338L314 -7L338 34H384.5L408 -7L384.5 -47Z" stroke="#3D16FB" stroke-width="3"/>
<path d="M525.5 -47H479L455 -7L479 34H525.5L549 -7L525.5 -47Z" stroke="#3D16FB" stroke-width="3"/>
<path d="M666.5 -47H620L596 -7L620 34H666.5L690 -7L666.5 -47Z" stroke="#3D16FB" stroke-width="3"/>
<path d="M807.5 -47H761L737 -7L761 34H807.5L831 -7L807.5 -47Z" stroke="#3D16FB" stroke-width="3"/>
<path d="M948.5 -47H902L878 -7L902 34H948.5L972 -7L948.5 -47Z" stroke="#3D16FB" stroke-width="3"/>
<path d="M1089.5 -47H1043L1019 -7L1043 34H1089.5L1113 -7L1089.5 -47Z" stroke="#3D16FB" stroke-width="3"/>
<path d="M1230.5 -47H1184L1160 -7L1184 34H1230.5L1254 -7L1230.5 -47Z" stroke="#3D16FB" stroke-width="3"/>
<path d="M1371.5 -47H1325L1301 -7L1325 34H1371.5L1395 -7L1371.5 -47Z" stroke="#3D16FB" stroke-width="3"/>
<path d="M1512.5 -47H1466L1442 -7L1466 34H1512.5L1536 -7L1512.5 -47Z" stroke="#3D16FB" stroke-width="3"/>
<path d="M1653.5 -47H1607L1583 -7L1607 34H1653.5L1677 -7L1653.5 -47Z" stroke="#3D16FB" stroke-width="3"/>
<path d="M1794.5 -47H1748L1724 -7L1748 34H1794.5L1818 -7L1794.5 -47Z" stroke="#3D16FB" stroke-width="3"/>
<path d="M1935.5 -47H1889L1865 -7L1889 34H1935.5L1959 -7L1935.5 -47Z" stroke="#3D16FB" stroke-width="3"/>
</g>
</svg>
