<svg width="43" height="43" viewBox="0 0 43 43" fill="none" xmlns="http://www.w3.org/2000/svg">
<path fill-rule="evenodd" clip-rule="evenodd" d="M12.9393 5.72217C12.0326 5.72217 11.1899 6.18925 10.7093 6.95811L2.20132 20.5709L1.62061 21.5001L2.20132 22.4292L10.7093 36.042C11.1899 36.8109 12.0326 37.278 12.9393 37.278H37.8734C39.8098 37.278 41.3796 35.7082 41.3796 33.7718V9.22837C41.3796 7.29195 39.8098 5.72217 37.8734 5.72217H12.9393ZM5.75529 21.5001L13.4251 9.22837H37.8734V33.7718H13.4251L5.75529 21.5001ZM31.2241 15.0011C31.9087 15.6858 31.9087 16.7958 31.2241 17.4804L26.7661 21.9383L31.2241 26.3963C31.9087 27.0809 31.9087 28.1909 31.2241 28.8756C30.5395 29.5602 29.4295 29.5602 28.7448 28.8756L24.2869 24.4176L19.8289 28.8756C19.1443 29.5602 18.0343 29.5602 17.3497 28.8756C16.665 28.1909 16.665 27.0809 17.3497 26.3963L21.8076 21.9383L17.3497 17.4804C16.665 16.7958 16.665 15.6858 17.3497 15.0011C18.0343 14.3165 19.1443 14.3165 19.8289 15.0011L24.2869 19.4591L28.7448 15.0011C29.4295 14.3165 30.5395 14.3165 31.2241 15.0011Z" fill="#1B1B1D"/>
</svg>
