<svg width="30" height="30" viewBox="0 0 30 30" fill="none" xmlns="http://www.w3.org/2000/svg">
<path d="M15 0.493835C12.109 0.493835 9.28285 1.35112 6.87905 2.95729C4.47525 4.56346 2.60172 6.84637 1.49537 9.51733C0.389024 12.1883 0.0995529 15.1273 0.663564 17.9628C1.22758 20.7983 2.61974 23.4028 4.664 25.4471C6.70826 27.4914 9.31282 28.8835 12.1483 29.4475C14.9838 30.0115 17.9228 29.7221 20.5938 28.6157C23.2647 27.5094 25.5476 25.6358 27.1538 23.232C28.76 20.8282 29.6173 18.0021 29.6173 15.1111C29.6173 11.2344 28.0772 7.51641 25.336 4.77514C22.5947 2.03387 18.8767 0.493835 15 0.493835ZM23.2222 11.7126C23.2222 12.0378 23.1258 12.3558 22.9451 12.6262C22.7644 12.8966 22.5075 13.1074 22.2071 13.2319C21.9066 13.3563 21.5759 13.3889 21.2569 13.3254C20.938 13.262 20.6449 13.1054 20.415 12.8754C20.185 12.6454 20.0284 12.3524 19.9649 12.0334C19.9015 11.7144 19.934 11.3838 20.0585 11.0833C20.183 10.7828 20.3937 10.526 20.6642 10.3453C20.9346 10.1646 21.2525 10.0682 21.5778 10.0682C22.0139 10.0682 22.4322 10.2414 22.7406 10.5498C23.0489 10.8582 23.2222 11.2765 23.2222 11.7126ZM9.01603 13.357C8.69079 13.357 8.37285 13.2606 8.10243 13.0799C7.832 12.8992 7.62123 12.6424 7.49676 12.3419C7.3723 12.0414 7.33973 11.7108 7.40318 11.3918C7.46663 11.0728 7.62325 10.7798 7.85323 10.5498C8.08321 10.3198 8.37623 10.1632 8.69522 10.0998C9.01421 10.0363 9.34485 10.0689 9.64533 10.1933C9.94582 10.3178 10.2026 10.5286 10.3833 10.799C10.564 11.0694 10.6605 11.3874 10.6605 11.7126C10.6605 11.9317 10.6168 12.1485 10.5319 12.3505C10.447 12.5524 10.3226 12.7353 10.166 12.8885C10.0094 13.0417 9.82377 13.1621 9.62002 13.2425C9.41627 13.323 9.19849 13.3619 8.97949 13.357H9.01603ZM21.8062 20.2363C21.9515 20.4301 22.014 20.6738 21.9797 20.9137C21.9454 21.1535 21.8173 21.3699 21.6234 21.5153C21.4296 21.6607 21.186 21.7231 20.9461 21.6889C20.7062 21.6546 20.4898 21.5264 20.3444 21.3326C19.7416 20.5258 18.9567 19.8727 18.0537 19.4267C17.1507 18.9806 16.1551 18.7542 15.1479 18.7657C14.1408 18.7773 13.1507 19.0266 12.2582 19.4933C11.3656 19.96 10.596 20.6309 10.0118 21.4514C9.8713 21.6488 9.65808 21.7824 9.41908 21.8227C9.18007 21.8629 8.93486 21.8066 8.73739 21.6661C8.53992 21.5255 8.40636 21.3123 8.3661 21.0733C8.32584 20.8343 8.38217 20.5891 8.5227 20.3916C9.27356 19.3368 10.2629 18.4743 11.4102 17.8741C12.5575 17.274 13.8303 16.9534 15.125 16.9382C16.4196 16.9231 17.6996 17.2139 18.8606 17.787C20.0216 18.3602 21.0308 19.1994 21.8062 20.2363Z" fill="white"/>
</svg>
