<svg width="28" height="28" viewBox="0 0 28 28" fill="none" xmlns="http://www.w3.org/2000/svg">
<path d="M14 0C6.28015 0 0 6.28048 0 14C0 21.7195 6.28015 28 14 28C21.7199 28 28 21.7195 28 14C28 6.28048 21.7199 0 14 0ZM18.2609 7.91306C19.2678 7.91306 20.0869 8.73217 20.0869 9.73913C20.0869 10.7461 19.2678 11.5652 18.2609 11.5652C17.2539 11.5652 16.4348 10.7461 16.4348 9.73913C16.4348 8.73217 17.2539 7.91306 18.2609 7.91306ZM9.73913 7.91306C10.7461 7.91306 11.5652 8.73217 11.5652 9.73913C11.5652 10.7461 10.7461 11.5652 9.73913 11.5652C8.73217 11.5652 7.91306 10.7461 7.91306 9.73913C7.91306 8.73217 8.73217 7.91306 9.73913 7.91306ZM14 22.5217C9.30103 22.5217 5.47827 18.6989 5.47827 14C5.47827 13.4956 5.88727 13.0869 6.39133 13.0869C6.89538 13.0869 7.30439 13.4956 7.30439 14C7.30439 17.692 10.308 20.6957 14.0001 20.6957C17.6921 20.6957 20.6957 17.692 20.6957 14C20.6957 13.4956 21.1047 13.0869 21.6088 13.0869C22.1128 13.0869 22.5218 13.4956 22.5218 14C22.5217 18.699 18.699 22.5217 14 22.5217Z" fill="white"/>
</svg>
